<mxfile host="app.diagrams.net" modified="2022-10-01T02:44:22.343Z" agent="5.0 (Windows NT 10.0; Win64; x64) AppleWebKit/537.36 (KHTML, like Gecko) Chrome/105.0.0.0 Safari/537.36 Edg/105.0.1343.53" etag="cumv2ftTPbosyTDk0Y3d" version="20.3.7" type="github">
  <diagram id="Y2UFFlBaGo5TZK4e53Id" name="第 1 页">
    <mxGraphModel dx="1037" dy="634" grid="1" gridSize="10" guides="1" tooltips="1" connect="1" arrows="1" fold="1" page="1" pageScale="1" pageWidth="827" pageHeight="1169" math="0" shadow="0">
      <root>
        <mxCell id="0" />
        <mxCell id="1" parent="0" />
        <mxCell id="A7r7_6VY5UWORIOrSrvY-1" value="" style="rounded=0;whiteSpace=wrap;html=1;" vertex="1" parent="1">
          <mxGeometry x="570" y="50" width="400" height="40" as="geometry" />
        </mxCell>
        <mxCell id="A7r7_6VY5UWORIOrSrvY-2" value="data2" style="rounded=0;whiteSpace=wrap;html=1;" vertex="1" parent="1">
          <mxGeometry x="230" y="380" width="100" height="40" as="geometry" />
        </mxCell>
        <mxCell id="A7r7_6VY5UWORIOrSrvY-4" value="data1" style="rounded=0;whiteSpace=wrap;html=1;" vertex="1" parent="1">
          <mxGeometry x="230" y="420" width="100" height="40" as="geometry" />
        </mxCell>
        <mxCell id="A7r7_6VY5UWORIOrSrvY-5" value="data3" style="rounded=0;whiteSpace=wrap;html=1;" vertex="1" parent="1">
          <mxGeometry x="230" y="340" width="100" height="40" as="geometry" />
        </mxCell>
        <mxCell id="A7r7_6VY5UWORIOrSrvY-9" value="" style="endArrow=none;html=1;rounded=0;exitX=1;exitY=0;exitDx=0;exitDy=0;" edge="1" parent="1" source="A7r7_6VY5UWORIOrSrvY-5">
          <mxGeometry width="50" height="50" relative="1" as="geometry">
            <mxPoint x="330" y="300" as="sourcePoint" />
            <mxPoint x="330" y="250" as="targetPoint" />
          </mxGeometry>
        </mxCell>
        <mxCell id="A7r7_6VY5UWORIOrSrvY-10" value="" style="endArrow=none;html=1;rounded=0;exitX=0;exitY=0;exitDx=0;exitDy=0;" edge="1" parent="1" source="A7r7_6VY5UWORIOrSrvY-5">
          <mxGeometry width="50" height="50" relative="1" as="geometry">
            <mxPoint x="230" y="300" as="sourcePoint" />
            <mxPoint x="230" y="250" as="targetPoint" />
          </mxGeometry>
        </mxCell>
        <mxCell id="A7r7_6VY5UWORIOrSrvY-11" value="data2" style="rounded=0;whiteSpace=wrap;html=1;" vertex="1" parent="1">
          <mxGeometry x="820" y="315" width="100" height="40" as="geometry" />
        </mxCell>
        <mxCell id="A7r7_6VY5UWORIOrSrvY-12" value="data1" style="rounded=0;whiteSpace=wrap;html=1;" vertex="1" parent="1">
          <mxGeometry x="820" y="355" width="100" height="40" as="geometry" />
        </mxCell>
        <mxCell id="A7r7_6VY5UWORIOrSrvY-13" value="..." style="rounded=0;whiteSpace=wrap;html=1;" vertex="1" parent="1">
          <mxGeometry x="820" y="275" width="100" height="40" as="geometry" />
        </mxCell>
        <mxCell id="A7r7_6VY5UWORIOrSrvY-14" value="dataN" style="rounded=0;whiteSpace=wrap;html=1;" vertex="1" parent="1">
          <mxGeometry x="820" y="235" width="100" height="40" as="geometry" />
        </mxCell>
        <mxCell id="A7r7_6VY5UWORIOrSrvY-15" value="" style="endArrow=none;html=1;rounded=0;" edge="1" parent="1">
          <mxGeometry width="50" height="50" relative="1" as="geometry">
            <mxPoint x="920" y="235" as="sourcePoint" />
            <mxPoint x="920" y="185" as="targetPoint" />
          </mxGeometry>
        </mxCell>
        <mxCell id="A7r7_6VY5UWORIOrSrvY-16" value="" style="endArrow=none;html=1;rounded=0;" edge="1" parent="1">
          <mxGeometry width="50" height="50" relative="1" as="geometry">
            <mxPoint x="820" y="235" as="sourcePoint" />
            <mxPoint x="820" y="185" as="targetPoint" />
          </mxGeometry>
        </mxCell>
        <mxCell id="A7r7_6VY5UWORIOrSrvY-17" value="data4" style="rounded=0;whiteSpace=wrap;html=1;fillColor=#FFB366;" vertex="1" parent="1">
          <mxGeometry x="100" y="270" width="100" height="40" as="geometry" />
        </mxCell>
        <mxCell id="A7r7_6VY5UWORIOrSrvY-18" value="data2" style="rounded=0;whiteSpace=wrap;html=1;" vertex="1" parent="1">
          <mxGeometry x="460" y="380" width="100" height="40" as="geometry" />
        </mxCell>
        <mxCell id="A7r7_6VY5UWORIOrSrvY-19" value="data1" style="rounded=0;whiteSpace=wrap;html=1;" vertex="1" parent="1">
          <mxGeometry x="460" y="420" width="100" height="40" as="geometry" />
        </mxCell>
        <mxCell id="A7r7_6VY5UWORIOrSrvY-20" value="data3" style="rounded=0;whiteSpace=wrap;html=1;" vertex="1" parent="1">
          <mxGeometry x="460" y="340" width="100" height="40" as="geometry" />
        </mxCell>
        <mxCell id="A7r7_6VY5UWORIOrSrvY-21" value="data4" style="rounded=0;whiteSpace=wrap;html=1;fillColor=#FFB366;" vertex="1" parent="1">
          <mxGeometry x="460" y="300" width="100" height="40" as="geometry" />
        </mxCell>
        <mxCell id="A7r7_6VY5UWORIOrSrvY-22" value="" style="endArrow=none;html=1;rounded=0;" edge="1" parent="1">
          <mxGeometry width="50" height="50" relative="1" as="geometry">
            <mxPoint x="560" y="300" as="sourcePoint" />
            <mxPoint x="560" y="250" as="targetPoint" />
          </mxGeometry>
        </mxCell>
        <mxCell id="A7r7_6VY5UWORIOrSrvY-23" value="" style="endArrow=none;html=1;rounded=0;" edge="1" parent="1">
          <mxGeometry width="50" height="50" relative="1" as="geometry">
            <mxPoint x="460" y="300" as="sourcePoint" />
            <mxPoint x="460" y="250" as="targetPoint" />
          </mxGeometry>
        </mxCell>
        <mxCell id="A7r7_6VY5UWORIOrSrvY-24" value="" style="endArrow=classic;html=1;rounded=0;" edge="1" parent="1">
          <mxGeometry width="50" height="50" relative="1" as="geometry">
            <mxPoint x="150" y="260" as="sourcePoint" />
            <mxPoint x="280" y="260" as="targetPoint" />
            <Array as="points">
              <mxPoint x="150" y="190" />
              <mxPoint x="280" y="190" />
            </Array>
          </mxGeometry>
        </mxCell>
        <mxCell id="A7r7_6VY5UWORIOrSrvY-25" value="入栈" style="edgeLabel;html=1;align=center;verticalAlign=middle;resizable=0;points=[];" vertex="1" connectable="0" parent="A7r7_6VY5UWORIOrSrvY-24">
          <mxGeometry x="-0.1259" relative="1" as="geometry">
            <mxPoint y="1" as="offset" />
          </mxGeometry>
        </mxCell>
        <mxCell id="A7r7_6VY5UWORIOrSrvY-26" value="" style="shape=flexArrow;endArrow=classic;html=1;rounded=0;fillColor=#00FFFF;" edge="1" parent="1">
          <mxGeometry width="50" height="50" relative="1" as="geometry">
            <mxPoint x="370" y="354" as="sourcePoint" />
            <mxPoint x="430" y="354" as="targetPoint" />
          </mxGeometry>
        </mxCell>
        <mxCell id="A7r7_6VY5UWORIOrSrvY-31" value="" style="endArrow=classic;startArrow=classic;html=1;rounded=0;entryX=0;entryY=1;entryDx=0;entryDy=0;labelPosition=right;verticalLabelPosition=middle;align=left;verticalAlign=middle;" edge="1" parent="1" target="A7r7_6VY5UWORIOrSrvY-19">
          <mxGeometry width="50" height="50" relative="1" as="geometry">
            <mxPoint x="335" y="460" as="sourcePoint" />
            <mxPoint x="485" y="460" as="targetPoint" />
          </mxGeometry>
        </mxCell>
        <mxCell id="A7r7_6VY5UWORIOrSrvY-32" value="栈底" style="edgeLabel;html=1;align=left;verticalAlign=middle;resizable=0;points=[];labelPosition=right;verticalLabelPosition=middle;" vertex="1" connectable="0" parent="A7r7_6VY5UWORIOrSrvY-31">
          <mxGeometry x="-0.2" y="2" relative="1" as="geometry">
            <mxPoint y="1" as="offset" />
          </mxGeometry>
        </mxCell>
        <mxCell id="A7r7_6VY5UWORIOrSrvY-33" value="" style="endArrow=classic;startArrow=classic;html=1;rounded=0;entryX=0;entryY=1;entryDx=0;entryDy=0;labelPosition=right;verticalLabelPosition=middle;align=left;verticalAlign=middle;" edge="1" parent="1">
          <mxGeometry width="50" height="50" relative="1" as="geometry">
            <mxPoint x="331" y="250" as="sourcePoint" />
            <mxPoint x="456" y="250" as="targetPoint" />
          </mxGeometry>
        </mxCell>
        <mxCell id="A7r7_6VY5UWORIOrSrvY-35" value="栈顶" style="edgeLabel;html=1;align=right;verticalAlign=middle;resizable=0;points=[];labelPosition=left;verticalLabelPosition=middle;" vertex="1" connectable="0" parent="A7r7_6VY5UWORIOrSrvY-33">
          <mxGeometry x="0.208" relative="1" as="geometry">
            <mxPoint y="1" as="offset" />
          </mxGeometry>
        </mxCell>
        <mxCell id="A7r7_6VY5UWORIOrSrvY-36" value="数据入栈（PUSH）示意图" style="text;html=1;strokeColor=none;fillColor=none;align=center;verticalAlign=middle;whiteSpace=wrap;rounded=0;" vertex="1" parent="1">
          <mxGeometry x="240" y="490" width="170" height="30" as="geometry" />
        </mxCell>
      </root>
    </mxGraphModel>
  </diagram>
</mxfile>
